# xmcd
#
# Track frame offsets: 
#        150
#        7954
#        24971
#        37967
#        56890
#        80584
#        94225
#        115941
#        126981
#        140637
#        161253
#        187361
#        197667
#        218391
#        233524
#        254841
#        273641
#        286396
#        306069
#        322017
#
# Disc length: 4453 seconds
#
# Revision: 0
# Processed by: cddbd v1.5.2PL0 Copyright (c) Steve Scherf et al.
# Submitted via: ExactAudioCopy v0.99pb3
#
DISCID=23116314
DTITLE=Luu Hong - Dem da vu thu 7
DYEAR=1900
DGENRE=
TTITLE0=Granada
TTITLE1=Nguoi da di roi
TTITLE2=Tuoi biet buon
TTITLE3=Be yeu
TTITLE4=Moi nam yeu em
TTITLE5=Lan vao lua cat
TTITLE6=Sau xa xu
TTITLE7=L'ame de poetes
TTITLE8=Khuc nhac thanh xuan
TTITLE9=Tinh hong Paris
TTITLE10=Loi hua ban dau
TTITLE11=Love is blue
TTITLE12=Con gio thoang
TTITLE13=Anh hung ca
TTITLE14=Anh da biet
TTITLE15=Tram men ngan thuong
TTITLE16=Nguyen cau
TTITLE17=Chuyen hen ho
TTITLE18=Dong xanh
TTITLE19=El Cumbanchero
EXTD=
EXTT0=
EXTT1=
EXTT2=
EXTT3=
EXTT4=
EXTT5=
EXTT6=
EXTT7=
EXTT8=
EXTT9=
EXTT10=
EXTT11=
EXTT12=
EXTT13=
EXTT14=
EXTT15=
EXTT16=
EXTT17=
EXTT18=
EXTT19=
PLAYORDER=
